<?xml version="1.0" encoding="utf-8" ?>
<svg xmlns="http://www.w3.org/2000/svg" xmlns:xlink="http://www.w3.org/1999/xlink" width="1024" height="1024">
	<path fill="#FEFEFE" transform="matrix(1 0 0 1 -6.10352e-05 6.10352e-05)" d="M-0 -0L1024 0L1024 1024L-0 1024L0 -0Z"/>
	<path transform="matrix(1 0 0 1 -6.10352e-05 6.10352e-05)" d="M163.353 66.5822C189.535 78.2786 214.395 92.5535 238.375 108.24C281.667 136.56 321.667 169.788 357.483 207.101L379.475 230.372C434.378 214.1 490.313 207.22 547.5 211.856C575.91 214.16 604.23 218.583 631.585 226.724C632.779 227.08 644.375 231.075 644.799 230.909C645.99 230.444 649.961 225.175 651.01 224.021L674.75 198.431L705.694 168.867C751.4 127.64 803.477 92.0995 860.008 67.4025C868.416 142.056 867.994 218.012 857.144 292.402L842.769 366.914L837.326 388.445C836.952 389.834 835.513 393.346 835.644 394.655C835.782 396.041 836.754 398.056 837.197 399.421L840.808 410.763L846.609 433.172C856.391 474.72 858.395 517.756 851.635 559.955L945.579 544.723C938.301 548.79 929.745 551.194 921.897 554.01L847.683 577.874L842.928 597.625L898.428 624.01C908.342 628.751 919.464 633.298 928.624 639.328L837.964 612.156C836.682 613.543 836.028 615.712 835.262 617.458C834.996 618.066 834.191 619.399 834.179 619.942C834.169 620.42 834.796 621.572 834.987 622.093L837.203 628.493C841.489 641.652 843.779 655.502 844.706 669.297C846.481 695.711 842.341 721.877 833.443 746.75L825.868 764.217C811.843 793.364 791.365 818.637 768.236 841.023C725.137 882.739 671.048 916.204 614.355 936.052C584.115 946.639 550.769 955.435 518.596 956.491C500.302 957.092 482.037 954.729 464.128 951.127C429.8 944.223 397.072 932.216 365.574 917.046C342.373 905.872 320.254 892.364 299.409 877.271C235.683 831.132 180.329 764.788 178.761 682.5C178.487 668.14 180.376 652.939 183.987 639.083L187.204 628.673C187.701 627.226 188.724 625.171 188.922 623.696C189.023 622.943 188.287 621.311 188.018 620.535L185.093 612.13L95.7834 639.385C101.931 634.983 109.941 631.873 116.752 628.45L181.015 598.239L175.596 578.055C166.698 575.95 157.91 572.819 149.229 569.944L82.0533 544.294C90.6833 544.402 99.5865 546.875 108.042 548.574L172.688 563.78L168.911 531.028C166.535 500.804 169.038 469.938 175.838 440.424C177.872 431.595 179.959 422.713 182.713 414.079L187.418 400.384C187.985 398.823 189.294 396.288 189.457 394.695C189.657 392.741 187.847 388.226 187.302 386.177L180.382 359.967C174.225 336.554 169.699 312.348 166.246 288.395C158.588 235.274 156.997 181.603 159.234 128.022L163.353 66.5822Z"/>
	<path fill="#FEFEFE" transform="matrix(1 0 0 1 -6.10352e-05 6.10352e-05)" d="M512.088 670.25C515.396 672.098 516.316 681.019 517.64 684.707C521.825 696.362 530.906 706.503 542.19 711.653C558.019 718.877 574.4 719.197 590.653 713.097C605.477 707.535 615.718 697.249 622.315 683.009C623.127 681.257 623.439 680.177 625.25 679.51C626.662 679.851 626.907 680.016 627.984 681C628.313 682.478 628.128 683.584 627.709 685.039C624.018 697.844 613.043 708.62 601.668 714.901C585.184 724.004 565.679 725.657 547.674 720.367C531.26 715.545 520.463 704.5 512.382 689.795C503.745 705.135 493.193 716.167 475.753 721.061C458.032 726.034 437.128 723.556 421.153 714.383C410.727 708.396 399.335 696.607 396.669 684.491C396.355 683.067 396.205 681.793 396.957 680.485C398.613 679.48 398.895 679.563 400.75 679.628C402.984 681.895 404.229 686.986 405.745 689.984C407.283 693.023 409.224 695.788 411.412 698.394C420.807 709.585 436.568 716.374 451 717.343C473.484 718.851 497.634 709.178 506.266 686.977C507.642 683.437 508.736 679.858 509.702 676.186C510.247 674.117 510.393 671.696 512.088 670.25Z"/>
	<path fill="#FEFEFE" transform="matrix(1 0 0 1 -6.10352e-05 6.10352e-05)" d="M504.793 604.687C514.727 603.749 524.713 604.928 534.252 607.76C538.626 609.059 548.024 611.839 550.051 616.247C551.477 619.348 549.618 624.972 548.46 628.066C543.562 641.149 532.789 650.227 520.347 655.806L519.839 655.933L517.497 656.556C510.074 658.326 502.736 655.51 496.498 651.574C486.591 645.321 477.997 634.41 475.541 622.82C475.004 620.287 474.852 617.021 476.498 614.837C477.921 612.95 480.509 611.672 482.624 610.675C489.634 607.371 497.162 605.744 504.793 604.687Z"/>
	<path fill="#2E2D2D" transform="matrix(1 0 0 1 -6.10352e-05 6.10352e-05)" d="M209.39 161.147C214.152 162.933 218.892 164.437 223.551 166.531C265.005 185.161 301.858 216.083 333.153 248.616C312.972 258.874 293.447 270.517 275.528 284.394C254.974 300.598 236.626 318.523 221.225 339.772C216.779 327.171 214.764 313.054 212.796 299.877L207.315 254.931L205.975 203.18C206.02 189.676 205.465 174.128 209.39 161.147Z"/>
	<path fill="#2E2D2D" transform="matrix(1 0 0 1 -6.10352e-05 6.10352e-05)" d="M810.931 164.491L813.5 164.561C814.457 165.257 815.114 165.556 815.662 166.652C817.996 171.322 818.111 178.81 818.622 184.018C820.247 200.585 819.935 217.428 818.937 234.03C817.698 254.653 815.308 275.182 811.557 295.5C809.037 309.148 806.325 322.807 802.094 336.044C799.608 332.328 796.421 328.966 793.533 325.547C780.248 309.822 765.153 296.852 749.136 284.062C737.062 275.052 724.61 266.829 711.497 259.4L687.787 246.527L688.134 245.626C688.681 244.567 690.509 243.168 691.382 242.3L701.584 232.602C733.704 203.834 770.877 180.521 810.931 164.491Z"/>
	<path fill="#FEFEFE" transform="matrix(1 0 0 1 -6.10352e-05 6.10352e-05)" d="M335.332 407.2L335.818 407.12C353.692 405.457 373.323 412.399 387.283 423.426C407.814 439.645 419.664 464.946 422.454 490.646C425.376 517.561 417.696 545.281 400.718 566.444C386.918 583.646 368.606 593.088 346.917 595.471C327.397 595.796 308.962 589.451 293.675 577.275C273.252 561.009 260.513 536.532 257.787 510.661C255.067 484.845 262.721 457.288 279.212 437.149C293.325 419.914 313.278 409.381 335.332 407.2Z"/>
	<path transform="matrix(1 0 0 1 -6.10352e-05 6.10352e-05)" d="M351.525 432.674C364.309 431.877 375.158 435.663 385.099 443.63C400.077 455.635 408.455 475.512 410.262 494.285C412.405 516.556 406.484 539.093 392.128 556.412C383.349 567.002 373.537 572.578 359.895 573.888C348.33 574.23 338.069 570.643 328.818 563.855C313.877 552.892 304.344 533.666 301.639 515.62C298.519 494.805 303.125 471.364 315.917 454.418C324.838 442.6 336.854 434.715 351.525 432.674Z"/>
	<path fill="#FEFEFE" transform="matrix(1 0 0 1 -6.10352e-05 6.10352e-05)" d="M364.762 446.6C367.987 446.184 370.929 446.414 374 447.522C380.799 449.975 386.504 455.491 389.315 462.152C391.944 468.382 392.53 476.304 389.836 482.601C387.5 488.063 383.814 491.164 378.444 493.36C374.958 493.835 371.224 493.923 367.9 492.609C361.787 490.191 356.632 484.521 354.038 478.55C351.123 471.84 350.314 464.563 353.147 457.711C355.538 451.927 359.123 448.9 364.762 446.6Z"/>
	<path fill="#FEFEFE" transform="matrix(1 0 0 1 -6.10352e-05 6.10352e-05)" d="M680.307 408.227C699.063 407.939 717.125 414.084 731.834 425.782C751.616 441.515 763.378 464.304 766.216 489.25C769.321 516.534 761.93 543.582 744.693 565.054C730.379 582.886 710.284 592.614 687.869 595.045C667.72 596.017 647.287 588.824 632.25 575.336C612.424 557.553 601.634 532.354 600.201 505.988C598.807 480.337 607.591 453.059 624.916 433.957C639.443 417.941 658.861 409.186 680.307 408.227Z"/>
	<path transform="matrix(1 0 0 1 -6.10352e-05 6.10352e-05)" d="M665.899 431.691C677.873 430.967 690.292 435.916 699.25 443.678C714.275 456.698 722.409 475.508 723.942 495.143C725.637 516.846 719.917 539.296 705.498 556C696.353 566.594 684.22 573.786 670.125 574.77C659.076 575.322 647.421 569.981 639.011 563.094C623.579 550.457 614.653 531.113 612.676 511.5C610.579 490.704 616.344 467.572 629.819 451.305C639.03 440.185 651.52 433.091 665.899 431.691Z"/>
	<path fill="#FEFEFE" transform="matrix(1 0 0 1 -6.10352e-05 6.10352e-05)" d="M684.125 448.159C688.018 448.35 690.931 448.965 694.329 451.035C700.149 454.58 703.824 460.702 705.319 467.255C706.801 473.75 706.569 481.197 702.738 486.87C699.413 491.796 695.797 493.88 690.126 494.888C686.387 494.577 683.679 494.009 680.5 491.954C674.192 487.875 670.247 481.228 668.812 473.937C667.529 467.423 668.885 460.245 672.75 454.83C675.564 450.887 679.435 448.953 684.125 448.159Z"/>
</svg>
