<?xml version="1.0" encoding="UTF-8"?>
<svg id="Layer_1" xmlns="http://www.w3.org/2000/svg" version="1.1" viewBox="0 0 38.2 37.3">
  <!-- Generator: Adobe Illustrator 29.2.1, SVG Export Plug-In . SVG Version: 2.1.0 Build 116)  -->
  <defs>
    <style>
      .st0 {
        fill: #5a0c0c;
      }
    </style>
  </defs>
  <path class="st0" d="M38.2,17.9v2.2c-.3,7.3-5.3,14.3-12.1,16.8s-1.8.8-2.2-.3c0-1.8,0-3.8,0-5.6s-.3-2.5-1.3-3.5c3.1-.3,6.3-1.5,7.7-4.4s1.5-7.6-1-10.1c.5-1.2.5-2.6.2-3.9s-.3-1-.4-1.1c-.3-.3-1.6,0-2,.2-1.1.4-2.2,1-3.2,1.6-3.2-.8-6.4-.8-9.5,0-1.6-.9-3.4-2.1-5.3-1.9-.6,1.7-.8,3.4-.2,5.1-2.3,2.4-2.3,6.2-1.3,9.1s4.4,5,8.1,5.4c-.7.7-1,1.6-1.2,2.6-1.5.6-3.2.8-4.5-.4s-1.1-1.7-1.9-2.4-2-1.2-2.8-.6c-.2.4.9,1.1,1.2,1.3,1.8,1.5,1.3,3.9,4,4.6s.8.2,1.1.2c1,.1,1.9.1,2.9-.1-.2,1.1.2,2.6,0,3.7s-.8.9-1.6.7C6.7,35.4,1.6,29.1.4,23-2.3,9.6,9.1-2.1,22.5.3s15.1,8.9,15.6,17.6Z"/>
</svg>