<?xml version="1.0" encoding="UTF-8"?>
<svg id="Layer_1" xmlns="http://www.w3.org/2000/svg" version="1.1" viewBox="0 0 30 30">
  <!-- Generator: Adobe Illustrator 29.2.1, SVG Export Plug-In . SVG Version: 2.1.0 Build 116)  -->
  <defs>
    <style>
      .st0 {
        fill: #5a0c0c;
      }
    </style>
  </defs>
  <path class="st0" d="M19.5,5.4c2.8,0,5.2,2.3,5.2,5.2v8.9c0,2.8-2.3,5.2-5.2,5.2h-8.9c-2.8,0-5.2-2.3-5.2-5.2v-8.9c0-2.8,2.3-5.2,5.2-5.2h8.9M19.5,3.5h-8.9c-3.9,0-7,3.2-7,7v8.9c0,3.9,3.2,7,7,7h8.9c3.9,0,7-3.2,7-7v-8.9c0-3.9-3.2-7-7-7Z"/>
  <path class="st0" d="M21.1,7.5c-.7,0-1.3.6-1.3,1.3s.6,1.3,1.3,1.3c.7,0,1.3-.6,1.3-1.3s-.6-1.3-1.3-1.3h0Z"/>
  <path class="st0" d="M15.1,10.9c2.3,0,4.1,1.9,4.1,4.1,0,2.3-1.9,4.1-4.1,4.1-2.3,0-4.1-1.9-4.1-4.1,0,0,0,0,0,0,0-2.3,1.9-4.1,4.1-4.1M15.1,9c-3.3,0-6,2.7-6,6,0,3.3,2.7,6,6,6,3.3,0,6-2.7,6-6,0-3.3-2.7-6-6-6,0,0,0,0,0,0Z"/>
</svg>