<?xml version="1.0" encoding="UTF-8"?>
<svg id="Layer_1" data-name="Layer 1" xmlns="http://www.w3.org/2000/svg" viewBox="0 0 506.7 506.51">
  <defs>
    <style>
      .cls-1 {
        fill: #5a0c0c;
      }
    </style>
  </defs>
  <path class="cls-1" d="M274.48,0c.59,1.94,2.18,1.63,3.75,1.74,105.51,7.41,197.87,90.06,221.47,192.31,3.17,13.72,4.24,27.89,7,41.55v34.62c-2.5,6.21-1.62,13.22-2.59,19.79-25.64,173.13-214.46,268.2-369.55,187.25C15.3,415.01-33.46,266.27,24.2,144.5,60.97,66.85,141.71,6.98,228.5,1.74M172.97,86.39c-45.18,4.47-83.66,43.28-86.84,88.8-3.52,50.33,2.73,104.69,0,155.45,3.75,47.77,42.31,86,89.98,89.89,50.43-2.64,104.51,3.57,154.51,0,47.72-3.4,86.77-43.19,89.94-90.78,3.33-49.91-2.46-103.39,0-153.67-3.66-47.09-42.41-86.86-89.89-89.98-51.15-3.37-106.16,2.38-157.69.29Z"/>
  <path class="cls-1" d="M182.26,111.72c48.57-3.34,101.14,1.23,149.96.7,33.4,4.53,58.43,30.27,62.16,63.67-.46,47.83,3.67,104.05,0,153.67-2.5,33.8-30.98,61.82-64.6,64.6-51.08,3.17-103.48,3.65-152.83,0-38.9-2.88-63.44-34.76-65.49-72.16-2.47-45.08,1.95-92.4,0-137.72,2.3-41.89,28.72-69.86,70.8-72.76ZM345.19,137.85c-20.68,3.51-19.54,38.06,4.06,38.67,27.11.7,26.23-43.82-4.06-38.67ZM248.97,163.23c-68.31,2.99-108.8,80-71.96,138.18,35.85,56.62,119.87,55.73,153.88-2.21,36.41-62.01-10.52-139.09-81.92-135.97Z"/>
  <path class="cls-1" d="M245.59,189.41c48.35-4.97,84.16,40.42,67.75,86.32-18.26,51.08-89.96,56.26-116.14,8.87-21.81-39.47,3.36-90.56,48.4-95.19Z"/>
</svg>