<?xml version="1.0" encoding="UTF-8"?>
<svg id="Layer_1" xmlns="http://www.w3.org/2000/svg" version="1.1" xmlns:serif="http://www.serif.com/" xmlns:xlink="http://www.w3.org/1999/xlink" viewBox="0 0 30 30">
  <!-- Generator: Adobe Illustrator 29.2.1, SVG Export Plug-In . SVG Version: 2.1.0 Build 116)  -->
  <defs>
    <style>
      .st0 {
        fill: #5a0c0c;
        fill-rule: evenodd;
      }
    </style>
  </defs>
  <path class="st0" d="M15,0c8.3,0,15,6.7,15,15s-6.7,15-15,15S0,23.3,0,15,6.7,0,15,0ZM10.3,23.4v-11.7h-3.9v11.7h3.9ZM24.4,23.4v-6.7c0-3.6-1.9-5.3-4.5-5.3s-3,1.1-3.5,1.9v-1.7h-3.9c0,1.1,0,11.7,0,11.7h3.9v-6.5c0-.4,0-.7.1-1,.3-.7.9-1.4,2-1.4s2,1.1,2,2.6v6.3s3.9,0,3.9,0ZM8.4,6.1c-1.3,0-2.2.9-2.2,2s.8,2,2.2,2h0c1.4,0,2.2-.9,2.2-2,0-1.1-.8-2-2.2-2Z"/>
</svg>