<?xml version="1.0" encoding="utf-8"?>
<!-- Generator: Adobe Illustrator 28.2.0, SVG Export Plug-In . SVG Version: 6.00 Build 0)  -->
<svg width="70px" height="70px" version="1.1" id="Layer_1" xmlns="http://www.w3.org/2000/svg" xmlns:xlink="http://www.w3.org/1999/xlink" x="0px" y="0px"
	 viewBox="0 0 792 612" style="enable-background:new 0 0 792 612;" xml:space="preserve">
<style type="text/css">
	.st0{fill:#231F20;}
</style>
<path class="st0" d="M678.67,306c0,156.11-126.55,282.67-282.67,282.67S113.33,462.11,113.33,306S239.89,23.33,396,23.33
	S678.67,149.89,678.67,306z M194.92,140.82l126,151.63l-132.59,180.2h84.24l105.48-149.44v149.44h65.93V339.34l80.58,133.32h79.11
	l-93.76-139.91c0,0,63.73-8.79,67.39-87.9c0,0,15.14-104.02-140.65-104.02c-40.66,0-58.6,0-58.6,0v138.45L274.77,139.34
	L194.92,140.82z M512.84,243.38c2.2,58.6-69.59,49.08-69.59,49.08V194.3C457.17,195.03,510.64,184.78,512.84,243.38z"/>
</svg>
