<?xml version="1.0" encoding="UTF-8"?>
<svg id="Layer_1" xmlns="http://www.w3.org/2000/svg" version="1.1" xmlns:xlink="http://www.w3.org/1999/xlink" viewBox="0 0 70 70">
  <!-- Generator: Adobe Illustrator 29.2.1, SVG Export Plug-In . SVG Version: 2.1.0 Build 116)  -->
  <defs>
    <style>
      .st0 {
        fill: #5a0c0c;
      }
    </style>
  </defs>
  <path class="st0" d="M60,35c0,13.8-11.2,25-25,25s-25-11.2-25-25,11.2-25,25-25,25,11.2,25,25ZM17.2,20.4l11.1,13.4-11.7,15.9h7.4l9.3-13.2v13.2h5.8v-11.8l7.1,11.8h7l-8.3-12.4s5.6-.8,6-7.8c0,0,1.3-9.2-12.4-9.2h-5.2v12.2l-9.1-12.4h-7.1ZM45.3,29.5c.2,5.2-6.2,4.3-6.2,4.3v-8.7c1.2,0,6-.8,6.2,4.3Z"/>
</svg>