<?xml version="1.0" encoding="UTF-8"?>
<svg id="Layer_1" xmlns="http://www.w3.org/2000/svg" version="1.1" viewBox="0 0 800 800">
  <!-- Generator: Adobe Illustrator 29.2.1, SVG Export Plug-In . SVG Version: 2.1.0 Build 116)  -->
  <defs>
    <style>
      .st0 {
        fill: #5a0c0c;
      }
    </style>
  </defs>
  <path class="st0" d="M400,50c-193.3,0-350,156.7-350,350s156.7,350,350,350,350-156.7,350-350S593.3,50,400,50ZM600,248.2l-31.9,30.5c-2.8,2.1-4.1,5.5-3.6,8.9v224.8c-.5,3.4.8,6.9,3.6,8.9l31.2,30.5v6.8h-156.9v-6.5l32.3-31.3c3.2-3.2,3.2-4.1,3.2-8.9v-181.9l-89.8,227.8h-12.1l-104.5-227.8v152.7c-.9,6.4,1.3,12.9,5.9,17.5l42,50.9v6.8h-119.4v-6.8l42-50.9c4.5-4.6,6.5-11.1,5.5-17.5v-176.6c.5-4.9-1.3-9.7-5.1-13l-37.3-45v-6.8h116l89.5,196.5,78.8-196.3h110.5v6.6Z"/>
</svg>